<?xml version="1.0" encoding="UTF-8"?>
<svg xmlns="http://www.w3.org/2000/svg" width="136.656" height="53.611" viewBox="0 0 136.656 53.611">
  <g id="OASIS_Long_Logo_-_Black_" data-name="OASIS Long Logo - Black " transform="translate(-21 -15)">
    <g id="logo_2_" data-name="logo (2)" transform="translate(20.111 14.111)">
      <path id="Path_1" data-name="Path 1" d="M26.5,3.014c-.2.021-.709.092-1.13.154a12.592,12.592,0,0,0-1.7.411,14.218,14.218,0,0,0-1.7.688c-.421.216-3.657,2.147-7.191,4.274S8.031,12.682,7.61,13a15.57,15.57,0,0,0-1.428,1.3A15.183,15.183,0,0,0,4.949,15.9a14.781,14.781,0,0,0-.966,1.746,15.85,15.85,0,0,0-.668,1.9l-.288,1.027C2.977,34.451,3,37.04,3.079,37.626a15.858,15.858,0,0,0,.38,1.7,12.921,12.921,0,0,0,.606,1.644,17.837,17.837,0,0,0,.945,1.644A13.935,13.935,0,0,0,6.264,44.19a15.463,15.463,0,0,0,1.387,1.243c.4.3,3.606,2.291,7.14,4.428s6.77,4.058,7.191,4.274a14.213,14.213,0,0,0,1.7.688,14.734,14.734,0,0,0,1.7.432,15.729,15.729,0,0,0,2.055.123,11.146,11.146,0,0,0,2.312-.226,14.368,14.368,0,0,0,1.952-.6,15.315,15.315,0,0,0,1.644-.781c.4-.236,3.534-2.127,6.986-4.212S46.906,45.516,47.3,45.2a13.272,13.272,0,0,0,1.284-1.233c.319-.36.771-.935,1.017-1.284a15.691,15.691,0,0,0,.842-1.459c.216-.452.514-1.191.668-1.644a15.026,15.026,0,0,0,.411-1.747c.123-.75.154-2.373.154-8.63,0-6.657-.02-7.839-.164-8.681a15.269,15.269,0,0,0-.411-1.726c-.133-.4-.411-1.079-.6-1.49a17.221,17.221,0,0,0-.9-1.562A13.127,13.127,0,0,0,48.128,14a11.953,11.953,0,0,0-1.644-1.4c-.4-.257-3.472-2.137-6.832-4.161s-6.318-3.811-6.575-3.966a13.89,13.89,0,0,0-1.387-.627,13.513,13.513,0,0,0-1.9-.575,14.083,14.083,0,0,0-1.952-.247A11.762,11.762,0,0,0,26.5,3.014ZM27.75,4.17l-.22-.015c-.144-.01-.7.01-1.233.051a11.68,11.68,0,0,0-1.9.339,13.263,13.263,0,0,0-1.8.7c-.483.236-3.76,2.188-7.294,4.325s-6.678,4.089-6.986,4.325a14.142,14.142,0,0,0-1.274,1.192,12.817,12.817,0,0,0-1.181,1.479A14.265,14.265,0,0,0,5.072,18a14.609,14.609,0,0,0-.627,1.747l-.288,1.027c0,16.7,0,16.859.216,17.67a16.142,16.142,0,0,0,.544,1.592,12.47,12.47,0,0,0,.688,1.387A13.007,13.007,0,0,0,6.4,42.6a14.081,14.081,0,0,0,1.264,1.335,17.626,17.626,0,0,0,2.979,2.086c1.181.719,2.538,1.49,3.02,1.716a19.77,19.77,0,0,0,1.849.729c.534.175,1.438.411,2,.534a12.471,12.471,0,0,0,3.082.226,12.81,12.81,0,0,0,3.185-.216c.627-.133,1.52-.37,2-.524s1.192-.442,1.592-.606a14.478,14.478,0,0,0,1.49-.75c.421-.246,1.192-.75,1.7-1.13a21.024,21.024,0,0,0,1.654-1.4c.4-.39.966-1.007,1.274-1.377s.791-1.038,1.089-1.49a19.889,19.889,0,0,0,1.058-1.9c.277-.6.658-1.521.832-2.055a4.773,4.773,0,0,0,.257-1.027c-.031-.031-.062-.031-.082,0s-.288.4-.606.822a11.761,11.761,0,0,1-1.182,1.336,12.168,12.168,0,0,1-1.264,1.048,11.446,11.446,0,0,1-1.541.894,15.207,15.207,0,0,1-1.746.668,16.407,16.407,0,0,1-1.9.37,9.139,9.139,0,0,1-2.055.01,16.793,16.793,0,0,1-1.849-.318,13.512,13.512,0,0,1-1.952-.771,13.924,13.924,0,0,1-1.8-1.058,12.265,12.265,0,0,1-2.466-2.589,16.3,16.3,0,0,1-.935-1.7,17.448,17.448,0,0,1-.812-2.106c-.175-.6-.411-1.613-.534-2.26a14.42,14.42,0,0,1-.226-3.185,25.335,25.335,0,0,1,.123-2.825c.082-.452.226-1.192.339-1.644s.318-1.192.473-1.644a20.933,20.933,0,0,1,.873-2.106,22.86,22.86,0,0,1,1.356-2.414c.421-.627,1.12-1.541,1.562-2.055a23.516,23.516,0,0,1,1.685-1.675c.483-.421,1.223-1.007,1.644-1.3s1.14-.75,1.592-1.007a20.555,20.555,0,0,1,1.952-.945,22.947,22.947,0,0,1,2.414-.832c.709-.2,1.767-.421,2.363-.514A22.2,22.2,0,0,1,34.876,8.8c.9,0,1.962.051,2.363.1s.781.113.853.113.1-.031.082-.082S36.828,8.069,35.225,7.1s-3.2-1.89-3.534-2.044-1.007-.38-1.49-.524a9.356,9.356,0,0,0-1.644-.308ZM37.578,10.1A20.94,20.94,0,0,0,34.8,9.949c-.925.01-1.818.041-1.983.062s-.812.134-1.439.247a19.916,19.916,0,0,0-2.209.575,21.418,21.418,0,0,0-2,.791c-.5.236-1.315.678-1.8.976s-1.151.76-1.49,1.027-1.007.842-1.479,1.294-1.12,1.14-1.449,1.541-.812,1.068-1.1,1.49a18.907,18.907,0,0,0-1.089,1.9,20.837,20.837,0,0,0-.935,2.209c-.2.6-.452,1.52-.565,2.055s-.257,1.428-.308,1.973-.113,1.1-.113,1.212.031.205.082.205a7.446,7.446,0,0,0,.668-1.161,17.821,17.821,0,0,1,1.2-1.972c.339-.452.966-1.212,1.387-1.7s1.818-1.89,3.1-3.133,2.517-2.507,2.743-2.815a2.852,2.852,0,0,1,.709-.688,1.488,1.488,0,0,1,.586-.144,1.581,1.581,0,0,1,.6.144,3.038,3.038,0,0,1,.7.688c.226.308,1.181,1.294,2.106,2.2s2.168,2.127,2.743,2.722,1.346,1.428,1.7,1.849.863,1.14,1.151,1.592.678,1.1.853,1.438.421.986.575,1.438a15.161,15.161,0,0,1,.432,1.7c.082.483.175,1.5.216,2.26a19.811,19.811,0,0,1-.062,2.517c-.072.627-.205,1.521-.308,2s-.339,1.315-.514,1.849a22.439,22.439,0,0,1-.986,2.312,21.036,21.036,0,0,1-1.366,2.3,22.415,22.415,0,0,1-1.613,1.942A21.8,21.8,0,0,1,31.9,46.409c-.4.319-1.068.812-1.49,1.1a19.386,19.386,0,0,1-1.849,1.058,20.845,20.845,0,0,1-2.26.935c-.647.216-1.664.493-2.26.616a12.69,12.69,0,0,1-3.185.236,22.649,22.649,0,0,1-2.538-.072c-.247-.041-.442-.041-.442,0A22.681,22.681,0,0,0,20.1,51.721c1.233.75,2.507,1.469,2.835,1.613a11.6,11.6,0,0,0,1.49.524,11.117,11.117,0,0,0,1.87.339,16.26,16.26,0,0,0,2,0,10.753,10.753,0,0,0,1.952-.339,12.079,12.079,0,0,0,1.8-.709c.483-.236,3.647-2.116,7.037-4.161s6.421-3.894,6.729-4.1a14.119,14.119,0,0,0,1.5-1.295,14.405,14.405,0,0,0,1.428-1.705,12.556,12.556,0,0,0,.884-1.644,16.134,16.134,0,0,0,.616-1.8l.247-.925V20.88a21.47,21.47,0,0,0-.863-2.722,12.572,12.572,0,0,0-.884-1.644,13.941,13.941,0,0,0-1.284-1.572,11.613,11.613,0,0,0-1.644-1.4c-.483-.329-1.295-.842-1.8-1.14A19.378,19.378,0,0,0,42.067,11.4a21.427,21.427,0,0,0-2.209-.791A22.326,22.326,0,0,0,37.578,10.1Zm-9.9,7.3c-.164-.216-.329-.39-.36-.38a3.045,3.045,0,0,0-.524.586c-.257.329-1.449,1.541-2.651,2.7s-2.6,2.568-3.1,3.133-1.2,1.449-1.551,1.952a19,19,0,0,0-1.068,1.849,11.1,11.1,0,0,0-.637,1.8A8.109,8.109,0,0,0,17.565,31a14.225,14.225,0,0,0,.1,1.7A11.24,11.24,0,0,0,18,33.978a10.209,10.209,0,0,0,.575,1.387,12.035,12.035,0,0,0,.791,1.335,13.062,13.062,0,0,0,1.192,1.346,11.961,11.961,0,0,0,1.479,1.192,10.919,10.919,0,0,0,1.438.77,13.141,13.141,0,0,0,1.336.472,9.232,9.232,0,0,0,1.541.257,11.731,11.731,0,0,0,1.9,0,11.8,11.8,0,0,0,1.849-.349,11.564,11.564,0,0,0,1.7-.7,12.447,12.447,0,0,0,1.438-.894,13.668,13.668,0,0,0,1.233-1.13,11.434,11.434,0,0,0,1.017-1.274,11.806,11.806,0,0,0,.74-1.336,13.592,13.592,0,0,0,.575-1.541,7.553,7.553,0,0,0,.237-2.466,5.6,5.6,0,0,0-.339-2.62,15.9,15.9,0,0,0-.771-1.788,20.821,20.821,0,0,0-1.243-1.9,46.222,46.222,0,0,0-3.76-4.017C29.3,19.113,27.838,17.623,27.674,17.407Z" transform="translate(-1.494 -1.494)" fill="#222" fill-rule="evenodd"></path>
      <path id="Path_2" data-name="Path 2" d="M23.878,1.674l-.089-.61h0Zm1.13-.154L24.944.907h0Zm-2.825.565L21.992,1.5h0Zm-1.7.688.281.549h0ZM13.3,7.047l-.318-.528h0ZM6.116,11.506l-.372-.492,0,0,0,0Zm-1.428,1.3-.447-.424,0,0,0,0Zm-2.2,3.339L1.926,15.9h0Zm-.668,1.9.594.166v0Zm-.288,1.027L.94,18.911l-.023.08v.084Zm.051,17.054-.61.086v.011Zm.38,1.7.594-.164,0-.006,0-.006Zm.606,1.644-.559.259,0,.006,0,.005ZM4.77,42.7l-.447.424,0,0,0,0Zm1.387,1.243-.374.49,0,0,0,0Zm7.14,4.428-.319.527h0Zm7.191,4.274.281-.549h0Zm1.7.688-.191.586h0Zm3.75.555V54.5h.007Zm2.312-.226.129.6h0Zm1.952-.6-.223-.575-.005,0,0,0Zm1.644-.781.3.537,0,0,.005,0Zm6.986-4.212.319.528h0ZM45.8,43.7l.39.478h0Zm1.284-1.233.461.409h0ZM48.1,41.186l.5.355,0,0,0,0Zm.842-1.459L49.5,40l0,0,0,0Zm.668-1.644.583.2,0-.006,0-.006Zm.411-1.747-.608-.1h0Zm-.01-17.311.607-.1h0ZM49.6,17.3l.586-.191v0Zm-.6-1.49.562-.253,0-.009,0-.008Zm-.9-1.562-.515.339h0ZM46.634,12.5l-.44.431,0,0,0,0Zm-1.644-1.4-.333.519h0ZM38.159,6.944l-.319.527h0ZM31.583,2.979,31.9,2.45l-.008,0-.008,0ZM30.2,2.352l-.233.571,0,0,.005,0Zm-1.9-.575.128-.6h0ZM26.344,1.53l-.035.615h.012Zm-.308,1.13.044-.615h0Zm.22.015.042-.615h0ZM24.8,2.712l.047.615h0Zm-1.9.339.169.593h0Zm-1.8.7L20.834,3.2h0ZM13.81,8.074l.319.527h0ZM6.824,12.4l-.375-.489h0ZM5.55,13.591,6,14.016H6ZM4.369,15.071l.515.339h0Zm-.791,1.438-.557-.264h0Zm-.627,1.747-.592-.172v.006Zm-.288,1.027-.594-.166-.023.082v.085Zm.216,17.67-.6.158v0Zm1.233,2.979.534-.307,0-.006,0-.006Zm2.055,2.507.421-.45h0Zm2.979,2.086-.321.526h0Zm3.02,1.716-.261.558h0Zm1.849.729-.192.586h0Zm2,.534-.131.6h0Zm3.082.226,0-.616h0Zm3.185-.216.123.6h.005Zm2-.524.187.587.006,0,.006,0Zm1.592-.606.234.57h0Zm1.49-.75L27.06,45.1h0Zm3.349-2.527.43.442h0Zm1.274-1.377.474.395,0,0,0,0Zm2.147-3.39.555.268,0,0,0,0Zm.832-2.055.586.192,0-.005v0Zm.175-1.027-.513-.342-.046.069-.026.079Zm-.606.822.492.372h0Zm-1.182,1.336-.415-.456-.007.006-.007.007ZM32.1,38.463l-.352-.506,0,0,0,0Zm-1.541.894-.261-.558h0Zm-1.746.668.164.594h.006l.006,0Zm-1.9.37.069.613h.009Zm-2.055.01-.067.613h.006Zm-1.849-.318-.162.595.006,0h.006Zm-1.952-.771.272-.553h0Zm-1.8-1.058.37-.493h0ZM17.92,37.045l-.447.424,0,0,0,0Zm-1.13-1.377-.513.342,0,0,0,0Zm-.935-1.7.557-.263h0Zm-.812-2.106-.592.173h0Zm-.534-2.26.606-.115v0Zm-.1-6.01-.606-.11,0,.01v.01Zm.339-1.644.6.149h0Zm.473-1.644.583.2,0-.006,0-.006Zm.873-2.106.556.266,0,0,0,0Zm1.356-2.414-.512-.344,0,0,0,0Zm1.562-2.055-.459-.412,0,0,0,0Zm3.329-2.979-.356-.5h0ZM23.93,9.749l-.3-.536h0ZM25.882,8.8l.234.57,0,0,0,0ZM28.3,7.972l-.164-.594h0Zm2.363-.514-.09-.61h0Zm5.085-.051.094-.609h-.015Zm.935.031.572-.229-.009-.024-.011-.023ZM33.731,5.609l-.321.526h0ZM30.2,3.564,30.452,3l-.007,0-.007,0Zm-3.133-.832.045-.615Zm6.246,5.722V7.838H33.3Zm2.774.154L36.176,8h-.006Zm-4.756-.092.076.612h0Zm-1.439.247-.109-.607h0Zm-2.209.575-.192-.586h0Zm-2,.791-.262-.558h0Zm-1.8.976-.324-.525,0,0,0,0Zm-1.49,1.027.372.491,0,0,0,0Zm-1.479,1.294-.426-.445h0Zm-1.449,1.541-.477-.391h0Zm-1.1,1.49-.509-.348h0Zm-1.089,1.9.55.279,0,0,0,0Zm-.935,2.209-.583-.2,0,0v0Zm-.565,2.055.6.128h0Zm-.308,1.973.613.068v-.01Zm.637.257-.546-.286,0,0Zm1.2-1.972-.493-.37h0Zm4.489-4.829.429.443,0,0Zm2.743-2.815-.483-.383-.007.009-.007.009Zm.709-.688.247.565.022-.01.021-.011Zm1.181,0-.276.551.007,0,.008,0Zm.7.688.5-.365-.007-.009-.007-.009Zm2.106,2.2.431-.441h0Zm2.743,2.722-.444.428,0,0,0,0Zm1.7,1.849.48-.386,0,0,0,0ZM34.82,23.6l-.52.331,0,0,0,0Zm.853,1.438.555-.269,0-.007,0-.007Zm.575,1.438.583-.2h0Zm.432,1.7.607-.1v-.012Zm.216,2.26.616-.023V30.4Zm-.062,2.517.612.07v0Zm-.308,2,.6.14v-.012ZM36.011,36.8l.586.192h0Zm-.986,2.312.55.279,0,0v0Zm-1.366,2.3-.5-.362,0,0v0Zm-1.613,1.942.449.423h0ZM30.4,44.915l.384.483,0,0,0,0Zm-3.339,2.157.276.551h0Zm-4.52,1.552-.125-.6h-.005Zm-3.185.236v-.616h-.005Zm-2.538-.072.131-.6-.015,0-.015,0Zm-.442,0,.6.121.012-.06v-.061Zm2.229,1.439.32-.527h0Zm2.835,1.613.268-.555-.011-.005-.011,0Zm1.49.524.173-.592h0Zm1.87.339.047-.615h0Zm2,0-.043-.615h0Zm1.952-.339-.169-.593h0Zm1.8-.709-.271-.554,0,0,0,0Zm7.037-4.161.318.528h0Zm6.729-4.1-.342-.513h0Zm1.5-1.295.431.44,0,0,0,0Zm1.428-1.705.515.339h0Zm.884-1.644-.567-.241h0Zm.616-1.8-.6-.159h0ZM49,36.029l.6.159.021-.078v-.081Zm0-16.643h.616V19.3l-.021-.078Zm-.863-2.722-.567.241h0Zm-.884-1.644.515-.339h0Zm-1.284-1.572-.446.425h0Zm-1.644-1.4-.347.51,0,0,0,0Zm-1.8-1.14-.322.526,0,0,0,0ZM40.573,9.9l.246-.565h0Zm-2.209-.791-.169.593h0ZM25.82,15.533v.616h.1l.095-.032Zm.36.38-.49.374h0Zm-.884.205.486.379,0,0Zm-2.651,2.7.428.443h0Zm-3.1,3.133-.46-.41h0Zm-1.551,1.952-.506-.351,0,0,0,0Zm-1.068,1.849-.554-.271,0,0,0,0Zm-.637,1.8.6.147v-.007ZM16.173,31.2l-.609.092V31.3l0,.009Zm.329,1.284.59-.18,0-.007,0-.007Zm.575,1.387.554-.27,0-.006,0-.006Zm.791,1.335-.506.352,0,0,0,.005Zm1.192,1.346-.43.441,0,0,0,0Zm1.479,1.192.339-.515,0,0,0,0Zm1.438.77-.239.568h0Zm1.336.472.179-.59-.008,0-.008,0Zm1.541.257.063-.613H24.9Zm1.9,0,.059.614h0Zm1.849-.349-.176-.591h0Zm1.7-.7.285.546h0Zm1.438-.894.372.491,0,0,0,0Zm1.233-1.13.449.423,0,0,0,0ZM33.987,34.9l-.513-.342,0,.005,0,.006Zm.74-1.336-.56-.258h0Zm.575-1.541.591.175v-.011Zm-.1-5.085-.583.2h0Zm-.771-1.788.546-.286v-.005Zm-1.243-1.9.5-.363,0,0,0,0Zm-3.76-4.017.435-.437h0ZM23.968,2.284c.425-.062.925-.132,1.105-.151L24.944.907c-.21.022-.737.1-1.155.157Zm-1.593.387a12.018,12.018,0,0,1,1.593-.387l-.179-1.22a13.171,13.171,0,0,0-1.8.435Zm-1.605.651a13.645,13.645,0,0,1,1.605-.651L21.992,1.5a14.8,14.8,0,0,0-1.785.726ZM13.615,7.575c3.551-2.137,6.758-4.05,7.155-4.253l-.562-1.1c-.446.228-3.712,2.178-7.228,4.294ZM6.487,12c.182-.137,1.06-.7,2.377-1.515,1.3-.806,2.986-1.84,4.752-2.907L12.978,6.52C11.209,7.589,9.517,8.625,8.214,9.435c-1.285.8-2.23,1.4-2.47,1.579ZM5.135,13.234a14.985,14.985,0,0,1,1.36-1.243l-.759-.972a16.162,16.162,0,0,0-1.5,1.367ZM3.969,14.742a14.6,14.6,0,0,1,1.172-1.514l-.907-.835A15.775,15.775,0,0,0,2.94,14.063ZM3.052,16.4a14.189,14.189,0,0,1,.917-1.659L2.94,14.063A15.368,15.368,0,0,0,1.926,15.9Zm-.636,1.811A15.267,15.267,0,0,1,3.052,16.4l-1.126-.5a16.436,16.436,0,0,0-.7,1.99Zm-.289,1.031.288-1.027-1.187-.332L.94,18.911Zm.068,16.8c-.034-.24-.061-.977-.07-3.458-.009-2.453,0-6.568.024-13.508l-1.233,0C.892,26.014.884,30.134.893,32.592c.009,2.429.033,3.279.082,3.625Zm.36,1.6a15.286,15.286,0,0,1-.362-1.616l-1.218.194A16.465,16.465,0,0,0,1.374,38Zm.575,1.56a12.337,12.337,0,0,1-.571-1.549l-1.188.329a13.522,13.522,0,0,0,.641,1.738Zm.9,1.564A17.26,17.26,0,0,1,3.125,39.2l-1.108.54A18.348,18.348,0,0,0,3,41.453Zm1.186,1.5a13.343,13.343,0,0,1-1.186-1.5L3,41.453a14.505,14.505,0,0,0,1.32,1.667Zm1.313,1.177a14.874,14.874,0,0,1-1.319-1.183l-.884.86a16.052,16.052,0,0,0,1.455,1.3Zm7.085,4.391c-3.552-2.148-6.721-4.12-7.091-4.395l-.736.989c.431.321,3.673,2.335,7.189,4.461Zm7.153,4.252c-.4-.2-3.6-2.116-7.155-4.253L12.979,48.9c3.517,2.116,6.782,4.066,7.228,4.294Zm1.605.651a13.673,13.673,0,0,1-1.605-.651l-.562,1.1a14.808,14.808,0,0,0,1.785.726Zm1.608.41a14.178,14.178,0,0,1-1.608-.41l-.383,1.172a15.231,15.231,0,0,0,1.783.453Zm1.951.114a15.247,15.247,0,0,1-1.951-.114l-.207,1.215a16.183,16.183,0,0,0,2.158.132Zm2.182-.212a10.539,10.539,0,0,1-2.189.212L25.94,54.5a11.773,11.773,0,0,0,2.434-.24Zm1.848-.564a13.8,13.8,0,0,1-1.85.564l.263,1.2a14.959,14.959,0,0,0,2.053-.627Zm1.574-.747a14.739,14.739,0,0,1-1.564.743l.446,1.149a15.923,15.923,0,0,0,1.724-.819Zm6.97-4.2c-3.455,2.087-6.583,3.975-6.981,4.209l.626,1.062c.4-.239,3.542-2.131,6.992-4.215Zm6.9-4.316c-.065.053-.3.215-.715.484-.4.259-.932.6-1.562.992-1.26.789-2.9,1.8-4.627,2.841l.637,1.055c1.728-1.044,3.377-2.058,4.644-2.851.633-.4,1.173-.739,1.579-1,.391-.254.694-.457.823-.563Zm1.212-1.164a12.722,12.722,0,0,1-1.212,1.164l.779.955a13.936,13.936,0,0,0,1.356-1.3ZM47.6,40.83c-.234.331-.672.889-.975,1.231l.923.817c.334-.377.8-.97,1.059-1.337Zm.795-1.379a15.1,15.1,0,0,1-.8,1.389l1.021.691A16.249,16.249,0,0,0,49.5,40Zm.636-1.567c-.147.431-.436,1.148-.641,1.577l1.113.531c.227-.475.534-1.237.695-1.71Zm.386-1.647a14.326,14.326,0,0,1-.39,1.659l1.175.374a15.578,15.578,0,0,0,.432-1.834Zm.146-8.53c0,3.129-.008,5.094-.031,6.369a17.078,17.078,0,0,1-.115,2.161l1.217.2a17.975,17.975,0,0,0,.131-2.339c.023-1.288.031-3.264.031-6.391Zm-.156-8.577c.132.775.156,1.88.156,8.577h1.233c0-6.617-.018-7.875-.173-8.785Zm-.39-1.639a14.806,14.806,0,0,1,.39,1.641l1.215-.21a15.812,15.812,0,0,0-.432-1.811Zm-.572-1.427c.18.4.449,1.058.573,1.432l1.17-.39c-.143-.428-.429-1.127-.619-1.548Zm-.857-1.475a16.592,16.592,0,0,1,.864,1.492l1.108-.54a17.711,17.711,0,0,0-.944-1.631ZM46.2,12.943a12.59,12.59,0,0,1,1.386,1.645l1.029-.678a13.708,13.708,0,0,0-1.552-1.848Zm-1.545-1.318a11.412,11.412,0,0,1,1.536,1.31l.88-.863a12.506,12.506,0,0,0-1.751-1.485ZM37.84,7.472c3.362,2.026,6.426,3.9,6.817,4.152l.666-1.038c-.41-.263-3.49-2.148-6.846-4.17ZM31.266,3.507c.256.154,3.214,1.931,6.573,3.964l.639-1.055C35.117,4.382,32.158,2.6,31.9,2.45Zm-1.292-.581a13.409,13.409,0,0,1,1.309.59l.6-1.076a14.433,14.433,0,0,0-1.465-.664ZM28.168,2.38a12.924,12.924,0,0,1,1.8.543l.466-1.141a14.09,14.09,0,0,0-2.006-.608ZM26.32,2.146a13.5,13.5,0,0,1,1.848.234l.255-1.206A14.672,14.672,0,0,0,26.368.914Zm-1.247-.013a11.579,11.579,0,0,1,1.236.013L26.38.915A12.076,12.076,0,0,0,24.944.907Zm.919,1.142.221.015.084-1.23-.218-.015Zm-1.142.051c.259-.02.524-.035.74-.044.108,0,.2-.007.276-.008h.126l.088-1.23c-.2-.014-.8.011-1.324.052Zm-1.779.317a11.1,11.1,0,0,1,1.779-.317L24.756,2.1a12.269,12.269,0,0,0-2.023.361Zm-1.7.66a12.675,12.675,0,0,1,1.7-.66l-.339-1.185a13.851,13.851,0,0,0-1.9.738ZM14.129,8.6c3.555-2.149,6.8-4.078,7.246-4.3L20.834,3.2c-.515.252-3.829,2.227-7.342,4.351ZM7.2,12.889c.122-.094.946-.618,2.233-1.415,1.264-.783,2.932-1.8,4.7-2.872l-.638-1.055c-1.769,1.069-3.44,2.093-4.708,2.879-1.246.772-2.148,1.342-2.334,1.485ZM6,14.016a13.64,13.64,0,0,1,1.2-1.127l-.75-.978A14.656,14.656,0,0,0,5.1,13.167ZM4.884,15.409A12.232,12.232,0,0,1,6,14.016l-.893-.85a13.408,13.408,0,0,0-1.25,1.565Zm-.749,1.363a13.7,13.7,0,0,1,.749-1.363l-1.03-.678a14.841,14.841,0,0,0-.833,1.513Zm-.592,1.655a14.1,14.1,0,0,1,.592-1.655l-1.114-.528a15.141,15.141,0,0,0-.661,1.838Zm-.286,1.021.288-1.027-1.187-.332L2.07,19.117Zm.218,17.346a10.279,10.279,0,0,1-.168-2.724c-.027-2.223-.027-6.432-.027-14.788H2.047c0,8.35,0,12.57.027,14.8a11.349,11.349,0,0,0,.209,3.026Zm.518,1.515a15.522,15.522,0,0,1-.519-1.519l-1.189.324a16.706,16.706,0,0,0,.57,1.666Zm.646,1.3a11.874,11.874,0,0,1-.646-1.3l-1.139.472a13.051,13.051,0,0,0,.731,1.47Zm.753,1.116a12.4,12.4,0,0,1-.746-1.1l-1.068.615a13.581,13.581,0,0,0,.836,1.239Zm1.2,1.26a13.553,13.553,0,0,1-1.2-1.26l-.978.75A14.571,14.571,0,0,0,5.746,42.89ZM9.467,44a17.061,17.061,0,0,1-2.879-2.009l-.842.9a18.151,18.151,0,0,0,3.08,2.162Zm2.961,1.684c-.448-.21-1.778-.964-2.961-1.684l-.641,1.053c1.18.718,2.562,1.505,3.08,1.747Zm1.779.7c-.511-.167-1.32-.487-1.779-.7L11.905,46.8a20.34,20.34,0,0,0,1.919.757Zm1.943.518c-.55-.12-1.433-.351-1.943-.518l-.383,1.172c.559.183,1.484.424,2.063.55Zm2.951.212A11.871,11.871,0,0,1,16.15,46.9l-.261,1.2a13.056,13.056,0,0,0,3.213.24Zm3.061-.2a12.214,12.214,0,0,1-3.058.2L19.1,48.346a13.393,13.393,0,0,0,3.312-.228ZM24.1,46.4c-.461.147-1.335.378-1.944.508l.257,1.206c.644-.138,1.558-.379,2.062-.54Zm1.546-.589c-.4.162-1.091.435-1.557.593l.4,1.167c.5-.17,1.222-.453,1.628-.619ZM27.06,45.1a13.825,13.825,0,0,1-1.412.712l.468,1.141a15.02,15.02,0,0,0,1.567-.788Zm1.635-1.09c-.482.364-1.232.854-1.635,1.09l.623,1.064c.44-.258,1.231-.774,1.755-1.17Zm1.6-1.347a20.548,20.548,0,0,1-1.6,1.347l.743.984a21.667,21.667,0,0,0,1.713-1.448Zm1.231-1.33c-.3.355-.846.955-1.231,1.33l.86.883c.417-.406,1-1.038,1.317-1.424ZM32.569,39.9c-.286.434-.767,1.086-1.054,1.442l.96.774c.309-.384.814-1.067,1.124-1.537Zm1.018-1.83a19.423,19.423,0,0,1-1.018,1.83l1.029.678a20.532,20.532,0,0,0,1.1-1.972Zm.8-1.978c-.164.5-.534,1.4-.805,1.986l1.118.52c.284-.609.674-1.558.859-2.123Zm.407-.4a.606.606,0,0,1-.14-.218.578.578,0,0,1-.03-.12.507.507,0,0,1-.005-.1c0-.022,0-.03,0-.011s-.019.092-.041.18c-.044.172-.113.411-.194.673l1.178.363c.084-.272.159-.531.21-.732.025-.1.047-.193.061-.273a1.145,1.145,0,0,0,.017-.146.733.733,0,0,0-.006-.136.634.634,0,0,0-.178-.359Zm.866-.094a.573.573,0,0,1-.476.251.552.552,0,0,1-.391-.157l.872-.872a.682.682,0,0,0-.481-.2.661.661,0,0,0-.55.3Zm-.627.852c.159-.211.31-.41.422-.562.056-.075.1-.142.14-.192l.05-.072.027-.043a.675.675,0,0,0,.06-.13l-1.17-.39a.581.581,0,0,1,.036-.084c.006-.013.012-.022.014-.026l.005-.008-.027.038c-.029.041-.072.1-.126.173-.109.146-.256.342-.415.553Zm-1.259,1.42a12.319,12.319,0,0,0,1.259-1.42l-.984-.743a11.158,11.158,0,0,1-1.1,1.251Zm-1.327,1.1a12.8,12.8,0,0,0,1.341-1.111l-.858-.885a11.569,11.569,0,0,1-1.186.984Zm-1.631.946a12.067,12.067,0,0,0,1.641-.953l-.722-1a10.9,10.9,0,0,1-1.441.835Zm-1.832.7a15.858,15.858,0,0,0,1.832-.7L30.295,38.8a14.578,14.578,0,0,1-1.661.635Zm-2,.39a16.951,16.951,0,0,0,1.987-.387l-.329-1.188a15.806,15.806,0,0,1-1.814.352Zm-2.193.012a9.774,9.774,0,0,0,2.184-.011l-.138-1.225a8.573,8.573,0,0,1-1.925.009Zm-1.938-.334a17.358,17.358,0,0,0,1.932.333l.134-1.226a16.231,16.231,0,0,1-1.767-.3Zm-2.074-.815a14.092,14.092,0,0,0,2.062.812l.324-1.189a12.969,12.969,0,0,1-1.842-.729Zm-1.9-1.118a14.409,14.409,0,0,0,1.9,1.118l.544-1.106a13.381,13.381,0,0,1-1.7-1Zm-1.407-1.276a14.759,14.759,0,0,0,1.407,1.276l.74-.986a13.721,13.721,0,0,1-1.264-1.149ZM16.283,36.02a14.807,14.807,0,0,0,1.189,1.449l.895-.848a13.661,13.661,0,0,1-1.071-1.3ZM15.3,34.237a16.868,16.868,0,0,0,.979,1.773l1.026-.684a15.722,15.722,0,0,1-.89-1.617Zm-.846-2.2a18.064,18.064,0,0,0,.846,2.2l1.115-.527a16.856,16.856,0,0,1-.777-2.016ZM13.9,29.723c.126.662.367,1.7.548,2.318l1.183-.347c-.168-.573-.4-1.57-.52-2.2Zm-.237-3.3a15.013,15.013,0,0,0,.237,3.3l1.21-.234a13.825,13.825,0,0,1-.215-3.068Zm.13-2.916a25.69,25.69,0,0,0-.13,2.916H14.9a25.012,25.012,0,0,1,.117-2.734Zm.351-1.7c-.118.473-.265,1.23-.347,1.683l1.213.221c.082-.451.223-1.174.331-1.6Zm.487-1.693c-.162.475-.372,1.233-.487,1.693l1.2.3c.111-.444.312-1.165.458-1.594Zm.9-2.173a21.462,21.462,0,0,0-.9,2.185l1.175.374a20.435,20.435,0,0,1,.842-2.027Zm1.4-2.486a23.447,23.447,0,0,0-1.4,2.493l1.118.519a22.271,22.271,0,0,1,1.312-2.336Zm1.61-2.119c-.458.532-1.171,1.466-1.606,2.113l1.023.688c.408-.607,1.092-1.5,1.517-2ZM20.288,11.6a24.108,24.108,0,0,0-1.738,1.727l.917.824A22.935,22.935,0,0,1,21.1,12.525Zm1.693-1.343c-.441.312-1.2.911-1.693,1.343l.81.929c.47-.41,1.193-.982,1.595-1.266Zm1.644-1.04c-.467.266-1.2.728-1.644,1.04l.712,1.006c.4-.285,1.1-.726,1.541-.974Zm2.023-.98a21.138,21.138,0,0,0-2.023.98l.609,1.072a19.955,19.955,0,0,1,1.881-.911Zm2.484-.856a23.542,23.542,0,0,0-2.492.859l.483,1.134a22.357,22.357,0,0,1,2.336-.8Zm2.432-.529c-.62.1-1.7.327-2.432.529l.327,1.189c.687-.189,1.722-.41,2.294-.5Zm2.817-.161a22.748,22.748,0,0,0-2.812.161l.18,1.22a21.654,21.654,0,0,1,2.633-.148Zm2.441.108c-.44-.056-1.529-.108-2.441-.108V7.92c.9,0,1.923.051,2.284.1ZM36.6,6.9c.022,0,.02,0-.039-.005l-.183-.023c-.149-.02-.34-.047-.537-.078L35.65,8.016c.2.031.4.06.562.081a3.775,3.775,0,0,0,.385.039Zm-.49.763a.556.556,0,0,1-.029-.31.571.571,0,0,1,.174-.313A.514.514,0,0,1,36.6,6.9V8.136a.721.721,0,0,0,.489-.184.661.661,0,0,0,.2-.365.676.676,0,0,0-.038-.379Zm-2.694-1.53c.8.482,1.53.927,2.061,1.257.266.165.48.3.628.395q.112.072.162.107l.024.017-.006,0-.016-.014c-.006-.006-.021-.019-.039-.038a.6.6,0,0,1-.1-.143l1.1-.551a.626.626,0,0,0-.1-.148c-.019-.021-.037-.036-.046-.045s-.038-.032-.049-.04-.049-.036-.072-.052c-.049-.033-.114-.076-.192-.126-.157-.1-.377-.24-.646-.406-.537-.333-1.271-.781-2.074-1.265ZM29.941,4.126c.3.135,1.853,1.026,3.469,2.01l.641-1.053c-1.59-.968-3.219-1.906-3.6-2.079Zm-1.41-.494c.466.139,1.112.368,1.425.5L30.437,3c-.365-.155-1.055-.4-1.554-.547Zm-1.513-.284a8.771,8.771,0,0,1,1.513.284l.352-1.182a9.946,9.946,0,0,0-1.775-.332Zm-.8-.057.8.057.09-1.23L26.3,2.061Zm7.1,5.78A20.359,20.359,0,0,1,36,9.219L36.171,8a21.526,21.526,0,0,0-2.861-.16ZM31.4,9.128h.015l.044,0,.143-.008c.117-.006.269-.012.447-.017.355-.011.805-.022,1.264-.027L33.3,7.838c-.909.01-1.845.04-2.052.066ZM30,9.369c.637-.115,1.262-.224,1.405-.242L31.25,7.9c-.186.023-.855.14-1.471.252Zm-2.126.554A19.331,19.331,0,0,1,30,9.369l-.219-1.213a20.489,20.489,0,0,0-2.291.6Zm-1.933.763c.48-.225,1.361-.576,1.933-.763l-.384-1.172a22,22,0,0,0-2.073.819ZM24.2,11.63c.464-.286,1.255-.717,1.736-.943l-.524-1.116c-.526.247-1.358.7-1.86,1.009Zm-1.432.987c.314-.247.961-.686,1.44-.992l-.663-1.039c-.487.311-1.175.776-1.539,1.063Zm-1.435,1.256c.464-.444,1.113-1.012,1.426-1.249l-.744-.983c-.366.277-1.053.881-1.533,1.34Zm-1.4,1.487c.31-.377.939-1.047,1.4-1.487l-.852-.891c-.486.465-1.151,1.171-1.5,1.6Zm-1.067,1.446c.282-.413.764-1.075,1.068-1.448l-.955-.779c-.333.409-.837,1.1-1.131,1.532ZM17.826,18.63a18.34,18.34,0,0,1,1.045-1.825l-1.018-.7a19.483,19.483,0,0,0-1.133,1.976Zm-.905,2.138a20.242,20.242,0,0,1,.9-2.13l-1.1-.559a21.424,21.424,0,0,0-.968,2.287Zm-.545,1.981c.107-.507.358-1.41.548-1.99l-1.172-.384c-.2.611-.464,1.558-.582,2.119Zm-.3,1.9c.049-.517.189-1.387.3-1.9l-1.206-.255c-.117.553-.265,1.47-.319,2.042Zm-.11,1.154s0,0,0-.027,0-.05.006-.085c.005-.071.013-.163.024-.271.02-.215.048-.487.079-.761l-1.225-.136c-.06.536-.117,1.124-.117,1.28Zm-.534-.411a.569.569,0,0,1,.408.171.491.491,0,0,1,.108.166.229.229,0,0,1,.018.073H14.735a1.036,1.036,0,0,0,.062.364.687.687,0,0,0,.637.458Zm.12-.827c-.162.313-.314.6-.429.8-.058.1-.1.174-.131.218-.016.024-.018.026-.011.017a.472.472,0,0,1,.053-.054.58.58,0,0,1,.1-.069.607.607,0,0,1,.3-.079v1.233a.626.626,0,0,0,.309-.082.654.654,0,0,0,.11-.078.766.766,0,0,0,.086-.09,1.449,1.449,0,0,0,.086-.119c.049-.075.108-.173.17-.282.127-.221.288-.52.455-.843Zm1.257-2.06a18.376,18.376,0,0,0-1.255,2.056l1.092.573A17.288,17.288,0,0,1,17.8,23.248Zm1.416-1.731c-.427.49-1.064,1.262-1.416,1.731l.986.74c.327-.436.943-1.184,1.358-1.66Zm3.138-3.171c-1.281,1.24-2.7,2.665-3.138,3.171l.929.81c.4-.46,1.779-1.849,3.067-3.1Zm2.675-2.737c-.081.11-.41.467-.922.991-.494.505-1.12,1.129-1.754,1.748l.861.882c.639-.624,1.272-1.254,1.775-1.768.485-.5.89-.925,1.035-1.123ZM25,13.982a1.881,1.881,0,0,0-.514.386,5.593,5.593,0,0,0-.431.484l.966.766a4.359,4.359,0,0,1,.332-.374,1.786,1.786,0,0,1,.132-.12c.041-.033.041-.027.009-.012Zm.833-.2a1.956,1.956,0,0,0-.441.058,1.889,1.889,0,0,0-.435.158l.58,1.088a.725.725,0,0,1,.143-.047.786.786,0,0,1,.152-.024ZM26.7,14a2.184,2.184,0,0,0-.872-.209v1.233a.811.811,0,0,1,.155.024.856.856,0,0,1,.165.054Zm.906.857a5.808,5.808,0,0,0-.427-.482,1.942,1.942,0,0,0-.494-.382l-.521,1.117c-.032-.015-.032-.021.01.013s.079.069.133.123a4.576,4.576,0,0,1,.333.376Zm2.054,2.141c-.459-.448-.924-.916-1.3-1.309s-.654-.7-.738-.813l-.994.729a12.263,12.263,0,0,0,.844.938c.388.4.862.881,1.328,1.336Zm2.755,2.735c-.583-.6-1.833-1.833-2.755-2.735l-.862.881c.927.906,2.163,2.122,2.73,2.71Zm1.726,1.884c-.364-.439-1.137-1.284-1.73-1.888l-.879.864c.578.588,1.325,1.407,1.66,1.811Zm1.2,1.655c-.3-.474-.84-1.212-1.191-1.648l-.96.773c.327.407.838,1.107,1.111,1.537Zm.88,1.487c-.186-.362-.578-1.028-.886-1.5l-1.029.678c.288.437.657,1.065.819,1.381Zm.611,1.522a16.138,16.138,0,0,0-.6-1.508l-1.109.538c.15.309.4.931.546,1.368Zm.454,1.778a15.761,15.761,0,0,0-.454-1.778l-1.167.4a14.567,14.567,0,0,1,.409,1.612ZM37.51,30.4c-.041-.767-.135-1.812-.224-2.33l-1.215.207c.076.448.167,1.437.208,2.19Zm-.064,2.616a20.436,20.436,0,0,0,.065-2.606l-1.232.046a19.246,19.246,0,0,1-.058,2.428Zm-.318,2.066c.109-.51.245-1.425.318-2.061l-1.225-.14c-.071.617-.2,1.489-.3,1.945ZM36.6,36.991c.181-.554.412-1.4.528-1.9l-1.2-.281c-.11.469-.331,1.283-.5,1.8Zm-1.019,2.393A22.889,22.889,0,0,0,36.6,36.991l-1.172-.383a21.843,21.843,0,0,1-.953,2.23Zm-1.42,2.391a21.529,21.529,0,0,0,1.417-2.385l-1.1-.557A20.432,20.432,0,0,1,33.16,41.05Zm-1.663,2a22.982,22.982,0,0,0,1.667-2.007l-1-.715A21.791,21.791,0,0,1,31.6,42.931Zm-1.7,1.615a22.318,22.318,0,0,0,1.7-1.615l-.9-.846a21.238,21.238,0,0,1-1.586,1.508ZM29.26,46.523c.434-.3,1.114-.8,1.526-1.126l-.767-.965c-.389.31-1.045.794-1.454,1.073Zm-1.921,1.1a19.943,19.943,0,0,0,1.921-1.1l-.7-1.018a18.841,18.841,0,0,1-1.777,1.016ZM25,48.592a21.428,21.428,0,0,0,2.341-.968l-.551-1.1a20.266,20.266,0,0,1-2.179.9Zm-2.33.635c.622-.129,1.663-.413,2.33-.635l-.39-1.17c-.627.209-1.621.48-2.19.6Zm-3.31.249a13.279,13.279,0,0,0,3.315-.25l-.26-1.205a12.087,12.087,0,0,1-3.055.223ZM16.69,49.39a3.2,3.2,0,0,0,.425.047c.168.011.377.019.611.026.468.013,1.051.018,1.638.013l-.011-1.233c-.574,0-1.142,0-1.593-.013-.226-.006-.419-.015-.568-.024q-.112-.007-.18-.014l-.061-.007Zm.306-.6a.6.6,0,0,1-.267.5.535.535,0,0,1-.176.077c-.046.011-.069.008-.045.008a1.45,1.45,0,0,1,.212.022l.2-1.216a2.635,2.635,0,0,0-.415-.039,1.041,1.041,0,0,0-.233.024.694.694,0,0,0-.227.1.633.633,0,0,0-.285.527Zm1.933.912c-.615-.374-1.17-.718-1.568-.973-.2-.128-.355-.231-.457-.3-.053-.037-.08-.058-.091-.067s.007,0,.028.028a.565.565,0,0,1,.069.092.608.608,0,0,1,.074.432l-1.209-.242a.626.626,0,0,0,.078.445.684.684,0,0,0,.084.112.952.952,0,0,0,.093.086c.048.039.106.082.166.124.123.086.295.2.5.331.411.263.975.613,1.593.989Zm2.762,1.575c-.283-.124-1.52-.819-2.762-1.575l-.641,1.053c1.223.744,2.535,1.487,2.909,1.651Zm1.412.5a11.22,11.22,0,0,1-1.39-.486l-.537,1.11a12.145,12.145,0,0,0,1.589.562Zm1.748.317a10.527,10.527,0,0,1-1.744-.316l-.345,1.184a11.738,11.738,0,0,0,2,.362Zm1.911,0a15.689,15.689,0,0,1-1.911,0l-.095,1.229a16.888,16.888,0,0,0,2.1,0Zm1.823-.316a10.157,10.157,0,0,1-1.821.315l.086,1.23a11.354,11.354,0,0,0,2.083-.363Zm1.691-.666a11.533,11.533,0,0,1-1.687.665l.339,1.185a12.7,12.7,0,0,0,1.909-.753Zm7-4.14c-3.411,2.056-6.539,3.914-6.99,4.135l.542,1.107c.515-.252,3.715-2.154,7.085-4.187Zm6.705-4.084c-.293.2-3.3,2.023-6.707,4.085l.639,1.054c3.377-2.047,6.429-3.9,6.752-4.113Zm1.41-1.222a13.715,13.715,0,0,1-1.41,1.222l.684,1.026a14.5,14.5,0,0,0,1.589-1.367Zm1.344-1.6a13.887,13.887,0,0,1-1.354,1.613l.881.863a14.959,14.959,0,0,0,1.5-1.8Zm.831-1.546a11.979,11.979,0,0,1-.831,1.546l1.03.678a13.133,13.133,0,0,0,.936-1.741Zm.588-1.715a15.5,15.5,0,0,1-.588,1.715l1.135.483a16.741,16.741,0,0,0,.645-1.881Zm.247-.925-.246.925,1.191.318.246-.925Zm-.021-16.484V36.029h1.233V19.385ZM47.567,16.9a20.906,20.906,0,0,1,.835,2.64l1.191-.317a21.943,21.943,0,0,0-.891-2.805Zm-.831-1.546a11.981,11.981,0,0,1,.831,1.546l1.135-.483a13.132,13.132,0,0,0-.936-1.741ZM45.52,13.873a13.392,13.392,0,0,1,1.215,1.485l1.03-.678a14.5,14.5,0,0,0-1.353-1.658Zm-1.537-1.308a11.026,11.026,0,0,1,1.537,1.308l.892-.851a12.192,12.192,0,0,0-1.75-1.486ZM42.211,11.44c.493.292,1.294.8,1.765,1.119l.694-1.019c-.494-.337-1.317-.857-1.831-1.161Zm-1.884-.972a18.8,18.8,0,0,1,1.877.968l.644-1.051a19.929,19.929,0,0,0-2.027-1.046ZM38.195,9.7a20.844,20.844,0,0,1,2.132.763l.493-1.13a21.981,21.981,0,0,0-2.286-.819Zm-2.2-.487a21.745,21.745,0,0,1,2.2.487l.339-1.185A22.926,22.926,0,0,0,36.176,8Zm-9.975,6.9a.6.6,0,0,1-.343.012.57.57,0,0,1-.128-.05.438.438,0,0,1-.068-.045c-.007-.006,0,0,.026.027.047.05.115.13.188.225l.981-.747a4.172,4.172,0,0,0-.272-.324,1.57,1.57,0,0,0-.141-.134A.8.8,0,0,0,26.132,15a.662.662,0,0,0-.148-.059.629.629,0,0,0-.358.011Zm-.231.378c.117-.151.229-.286.312-.379.043-.048.07-.076.084-.089s0,0-.02.015a.514.514,0,0,1-.072.044.582.582,0,0,1-.089.036.6.6,0,0,1-.178.027V14.917a.639.639,0,0,0-.287.069.719.719,0,0,0-.1.062,1.038,1.038,0,0,0-.1.085c-.05.048-.105.106-.157.165-.107.12-.237.278-.366.445Zm-2.71,2.768c1.189-1.149,2.418-2.4,2.708-2.766l-.972-.759c-.224.287-1.378,1.465-2.593,2.638ZM20,22.364c.486-.546,1.869-1.939,3.071-3.1l-.856-.887c-1.2,1.161-2.614,2.583-3.135,3.167ZM18.5,24.257c.333-.481,1.016-1.345,1.505-1.893l-.92-.82c-.518.581-1.232,1.484-1.6,2.011Zm-1.021,1.769A18.421,18.421,0,0,1,18.5,24.25l-1.023-.689a19.59,19.59,0,0,0-1.111,1.922Zm-.59,1.667a10.521,10.521,0,0,1,.595-1.676l-1.116-.524a11.691,11.691,0,0,0-.679,1.919Zm-.2,1.811a7.5,7.5,0,0,1,.2-1.8l-1.2-.294a8.722,8.722,0,0,0-.234,2.1Zm.1,1.6a13.7,13.7,0,0,1-.1-1.6H15.454a14.763,14.763,0,0,0,.11,1.787Zm.3,1.182a10.67,10.67,0,0,1-.307-1.2l-1.213.22a11.851,11.851,0,0,0,.35,1.369Zm.539,1.3a9.617,9.617,0,0,1-.534-1.286l-1.179.36a10.807,10.807,0,0,0,.616,1.488Zm.748,1.264a11.425,11.425,0,0,1-.743-1.253l-1.108.54a12.627,12.627,0,0,0,.84,1.418Zm1.116,1.257a12.531,12.531,0,0,1-1.124-1.267l-1,.725a13.635,13.635,0,0,0,1.26,1.424Zm1.378,1.112a11.378,11.378,0,0,1-1.384-1.117l-.85.893a12.5,12.5,0,0,0,1.575,1.266Zm1.348.724a10.288,10.288,0,0,1-1.339-.718l-.678,1.03a11.494,11.494,0,0,0,1.538.824Zm1.259.446a12.628,12.628,0,0,1-1.259-.446l-.478,1.136a13.8,13.8,0,0,0,1.413.5Zm1.429.237a8.713,8.713,0,0,1-1.412-.232l-.358,1.18a9.806,9.806,0,0,0,1.67.281Zm1.791,0a11.166,11.166,0,0,1-1.779,0l-.125,1.226a12.334,12.334,0,0,0,2.022,0Zm1.732-.326a11.2,11.2,0,0,1-1.732.326l.118,1.227a12.365,12.365,0,0,0,1.966-.372Zm1.586-.654a10.989,10.989,0,0,1-1.586.654l.352,1.182a12.14,12.14,0,0,0,1.8-.743Zm1.351-.839a11.793,11.793,0,0,1-1.351.839l.571,1.092a12.926,12.926,0,0,0,1.525-.949Zm1.157-1.062a13.148,13.148,0,0,1-1.166,1.069l.763.968a14.274,14.274,0,0,0,1.3-1.191Zm.945-1.182a10.927,10.927,0,0,1-.951,1.189l.909.833a11.986,11.986,0,0,0,1.083-1.359Zm.7-1.263a11.272,11.272,0,0,1-.693,1.252l1.026.684a12.437,12.437,0,0,0,.786-1.419Zm.544-1.457a13.073,13.073,0,0,1-.544,1.457l1.119.517a14.253,14.253,0,0,0,.607-1.625Zm.211-2.291a6.963,6.963,0,0,1-.214,2.3l1.189.327a8.148,8.148,0,0,0,.258-2.629Zm-.3-2.417a4.435,4.435,0,0,1,.264.944,12.965,12.965,0,0,1,.041,1.474h1.233a13.821,13.821,0,0,0-.051-1.632,5.607,5.607,0,0,0-.322-1.191Zm-.735-1.7a15.236,15.236,0,0,1,.734,1.7l1.165-.4a16.463,16.463,0,0,0-.807-1.871Zm-1.195-1.823a20.349,20.349,0,0,1,1.2,1.828l1.087-.581a21.311,21.311,0,0,0-1.288-1.973Zm-3.7-3.943a45.859,45.859,0,0,1,3.7,3.952l.983-.744a46.56,46.56,0,0,0-3.817-4.082Zm-3.3-3.382c.066.087.216.249.392.433s.439.458.734.759c.591.6,1.363,1.381,2.176,2.189l.869-.874c-.81-.8-1.578-1.578-2.164-2.177-.293-.3-.539-.554-.721-.746-.091-.1-.165-.175-.22-.235l-.065-.072-.021-.024Z" fill="#222"></path>
    </g>
    <g id="Group_53" data-name="Group 53" transform="translate(0 4)">
      <path id="Path_26" data-name="Path 26" d="M4.982,4.455A2.332,2.332,0,0,0,2.69,1.839,2.331,2.331,0,0,0,.4,4.455,2.332,2.332,0,0,0,2.69,7.07,2.332,2.332,0,0,0,4.982,4.455Zm-.761,0c0,1.24-.656,1.914-1.531,1.914S1.158,5.695,1.158,4.455,1.812,2.54,2.69,2.54,4.221,3.214,4.221,4.455ZM5.876,8.432H6.62V6.406h.045a1.166,1.166,0,0,0,1.1.669c.925,0,1.6-.741,1.6-1.976s-.681-1.966-1.6-1.966a1.147,1.147,0,0,0-1.1.669H6.6V3.182H5.876ZM6.6,5.091c0-.8.348-1.327,1-1.327.674,0,1.012.569,1.012,1.327S8.265,6.441,7.6,6.441C6.963,6.441,6.6,5.894,6.6,5.091Zm5.238,1.986a1.515,1.515,0,0,0,1.591-1.032l-.7-.127a.864.864,0,0,1-.88.544,1.049,1.049,0,0,1-1.084-1.148H13.48V5.051a1.672,1.672,0,0,0-1.69-1.919,1.785,1.785,0,0,0-1.765,1.984A1.765,1.765,0,0,0,11.842,7.077ZM10.768,4.758A1.025,1.025,0,0,1,11.8,3.746a.943.943,0,0,1,.957,1.012Zm4.283-.025a.865.865,0,0,1,.89-.957.782.782,0,0,1,.81.885V7H17.5V4.571a1.258,1.258,0,0,0-1.3-1.439,1.137,1.137,0,0,0-1.126.671h-.047V3.182h-.713V7h.743Zm5.687-.206H18.482V5.17h2.257Zm3.853-.413a1.325,1.325,0,0,0-1.444-.982c-.863,0-1.474.455-1.474,1.131,0,.542.328.9,1.044,1.061l.646.142c.368.082.539.246.539.485,0,.3-.316.527-.8.527a.743.743,0,0,1-.82-.567l-.718.109c.124.676.686,1.056,1.544,1.056.922,0,1.561-.49,1.561-1.181,0-.539-.343-.873-1.044-1.034l-.607-.139c-.42-.1-.6-.241-.6-.5,0-.293.316-.5.738-.5a.737.737,0,0,1,.763.512Zm2.5,2.963a1.773,1.773,0,0,0,1.78-1.969,1.79,1.79,0,1,0-3.56,0A1.773,1.773,0,0,0,27.09,7.077Zm0-.624c-.7,0-1.032-.614-1.032-1.347s.328-1.352,1.032-1.352,1.027.621,1.027,1.352S27.791,6.453,27.093,6.453Zm5.024-1.037a.9.9,0,0,1-.9.957.772.772,0,0,1-.778-.853V3.182H29.7V5.61c0,.947.52,1.439,1.253,1.439a1.183,1.183,0,0,0,1.141-.711h.04V7h.731V3.182h-.746ZM33.859,7H34.6V4.668a.854.854,0,0,1,.9-.858.757.757,0,0,1,.346.075l.239-.621a.881.881,0,0,0-.5-.139.989.989,0,0,0-.969.664h-.04V3.182h-.718Zm4.258.077a1.454,1.454,0,0,0,1.569-1.285h-.723a.816.816,0,0,1-.84.656c-.629,0-1.034-.525-1.034-1.357s.413-1.332,1.034-1.332a.819.819,0,0,1,.84.656h.723A1.46,1.46,0,0,0,38.11,3.132a1.781,1.781,0,0,0-1.772,1.976A1.771,1.771,0,0,0,38.117,7.077Zm4.012,0A1.515,1.515,0,0,0,43.72,6.045l-.7-.127a.864.864,0,0,1-.88.544,1.049,1.049,0,0,1-1.084-1.148h2.714V5.051a1.672,1.672,0,0,0-1.69-1.919,1.785,1.785,0,0,0-1.765,1.984A1.765,1.765,0,0,0,42.129,7.077ZM41.055,4.758a1.025,1.025,0,0,1,1.027-1.012.943.943,0,0,1,.957,1.012ZM46.939,7l.467-1.347H49.4L49.86,7h.815L48.843,1.909h-.887L46.124,7Zm.691-1.994.751-2.173h.04l.751,2.173Zm4.462-3.1h-.743V7h.743Zm1.743,0h-.743V7h.743Zm1,5.091h.743V3.182h-.743Zm.375-4.407a.459.459,0,0,0,.47-.442.471.471,0,0,0-.94,0A.458.458,0,0,0,55.21,2.593Zm2.478,4.492a1.193,1.193,0,0,0,1.129-.607h.03V7h.726V4.464a1.3,1.3,0,0,0-1.482-1.332,1.542,1.542,0,0,0-1.576.974l.7.159a.892.892,0,0,1,.887-.532.635.635,0,0,1,.726.684v.017c0,.271-.278.266-.964.346-.723.085-1.464.273-1.464,1.141A1.159,1.159,0,0,0,57.688,7.085Zm.162-.6c-.42,0-.723-.189-.723-.557,0-.4.353-.539.783-.6a2.9,2.9,0,0,0,.92-.2v.492A.9.9,0,0,1,57.849,6.488ZM61.3,4.733a.865.865,0,0,1,.89-.957.782.782,0,0,1,.81.885V7h.743V4.571a1.258,1.258,0,0,0-1.3-1.439,1.137,1.137,0,0,0-1.126.671h-.047V3.182h-.713V7H61.3Zm5.046,2.344a1.454,1.454,0,0,0,1.569-1.285H67.2a.816.816,0,0,1-.84.656c-.629,0-1.034-.525-1.034-1.357s.413-1.332,1.034-1.332a.819.819,0,0,1,.84.656h.723a1.46,1.46,0,0,0-1.576-1.283,1.781,1.781,0,0,0-1.772,1.976A1.771,1.771,0,0,0,66.351,7.077Zm4.012,0a1.515,1.515,0,0,0,1.591-1.032l-.7-.127a.864.864,0,0,1-.88.544,1.049,1.049,0,0,1-1.084-1.148H72V5.051a1.672,1.672,0,0,0-1.69-1.919,1.785,1.785,0,0,0-1.765,1.984A1.765,1.765,0,0,0,70.363,7.077ZM69.289,4.758a1.025,1.025,0,0,1,1.027-1.012.943.943,0,0,1,.957,1.012ZM2.329,11.182H1.506v-.343c0-.338.139-.522.5-.522a1.022,1.022,0,0,1,.333.057l.174-.6a1.783,1.783,0,0,0-.621-.1A1.04,1.04,0,0,0,.761,10.739v.442H.172v.6H.761V15h.746V11.778h.823Zm2.222,3.9a1.773,1.773,0,0,0,1.78-1.969,1.79,1.79,0,1,0-3.56,0A1.773,1.773,0,0,0,4.551,15.077Zm0-.624c-.7,0-1.032-.614-1.032-1.347s.328-1.352,1.032-1.352,1.027.621,1.027,1.352S5.252,14.453,4.554,14.453ZM7.159,15H7.9V12.668a.854.854,0,0,1,.9-.858.757.757,0,0,1,.346.075l.239-.621a.881.881,0,0,0-.5-.139.989.989,0,0,0-.969.664h-.04v-.607H7.159Zm7.48-3.754h.741A1.581,1.581,0,0,0,13.6,9.839c-1.022,0-1.8.584-1.8,1.462,0,.708.507,1.124,1.325,1.345l.6.164c.544.144.964.323.964.776,0,.5-.475.825-1.129.825-.592,0-1.084-.263-1.129-.818h-.771c.05.922.763,1.491,1.9,1.491,1.2,0,1.884-.629,1.884-1.491,0-.917-.818-1.273-1.464-1.432l-.5-.129c-.4-.1-.927-.288-.925-.776,0-.433.4-.753,1.022-.753C14.169,10.5,14.584,10.777,14.639,11.246Zm3.276,3.831a1.773,1.773,0,0,0,1.78-1.969,1.79,1.79,0,1,0-3.56,0A1.773,1.773,0,0,0,17.915,15.077Zm0-.624c-.7,0-1.032-.614-1.032-1.347s.328-1.352,1.032-1.352,1.027.621,1.027,1.352S18.616,14.453,17.918,14.453Zm4.213.624A1.454,1.454,0,0,0,23.7,13.792h-.723a.816.816,0,0,1-.84.656c-.629,0-1.034-.525-1.034-1.357s.413-1.332,1.034-1.332a.819.819,0,0,1,.84.656H23.7a1.46,1.46,0,0,0-1.576-1.283,1.781,1.781,0,0,0-1.772,1.976A1.771,1.771,0,0,0,22.131,15.077ZM24.5,15h.743V11.182H24.5Zm.375-4.407a.444.444,0,1,0-.47-.442A.459.459,0,0,0,24.873,10.593Zm2.478,4.492a1.193,1.193,0,0,0,1.129-.607h.03V15h.726V12.464a1.3,1.3,0,0,0-1.482-1.332,1.542,1.542,0,0,0-1.576.974l.7.159a.892.892,0,0,1,.887-.532.635.635,0,0,1,.726.684v.017c0,.271-.278.266-.964.346-.723.085-1.464.273-1.464,1.141A1.159,1.159,0,0,0,27.351,15.085Zm.162-.6c-.42,0-.723-.189-.723-.557,0-.4.353-.539.783-.6a2.9,2.9,0,0,0,.92-.2v.492A.9.9,0,0,1,27.513,14.488Zm3.455-4.579h-.743V15h.743Zm3.681,0h-.768V15h.768Zm1.8,2.824a.865.865,0,0,1,.89-.957.782.782,0,0,1,.81.885V15H38.9V12.571a1.258,1.258,0,0,0-1.3-1.439,1.137,1.137,0,0,0-1.126.671h-.047v-.621h-.713V15h.743Zm4.181,0a.865.865,0,0,1,.89-.957.782.782,0,0,1,.81.885V15h.743V12.571a1.258,1.258,0,0,0-1.3-1.439,1.137,1.137,0,0,0-1.126.671H40.6v-.621H39.89V15h.743Zm5.046,2.344a1.773,1.773,0,0,0,1.78-1.969,1.79,1.79,0,1,0-3.56,0A1.773,1.773,0,0,0,45.679,15.077Zm0-.624c-.7,0-1.032-.614-1.032-1.347s.328-1.352,1.032-1.352,1.027.621,1.027,1.352S46.38,14.453,45.681,14.453Zm5.737-3.271h-.8l-.964,2.938h-.04l-.967-2.938h-.8L49.239,15h.8Zm1.79,3.9a1.193,1.193,0,0,0,1.129-.607h.03V15h.726V12.464a1.3,1.3,0,0,0-1.482-1.332,1.542,1.542,0,0,0-1.576.974l.7.159a.892.892,0,0,1,.887-.532.635.635,0,0,1,.726.684v.017c0,.271-.278.266-.964.346-.723.085-1.464.273-1.464,1.141A1.159,1.159,0,0,0,53.208,15.085Zm.162-.6c-.42,0-.723-.189-.723-.557,0-.4.353-.539.783-.6a2.9,2.9,0,0,0,.92-.2v.492A.9.9,0,0,1,53.37,14.488Zm4.494-3.306h-.783v-.915h-.743v.915h-.559v.6h.559v2.255a1,1,0,0,0,1.114,1.017,1.423,1.423,0,0,0,.482-.08l-.134-.614a1.209,1.209,0,0,1-.261.032c-.241,0-.457-.08-.457-.51v-2.1h.783ZM58.685,15h.743V11.182h-.743Zm.375-4.407a.444.444,0,1,0-.47-.442A.459.459,0,0,0,59.06,10.593Zm2.975,4.484a1.773,1.773,0,0,0,1.78-1.969,1.79,1.79,0,1,0-3.56,0A1.773,1.773,0,0,0,62.036,15.077Zm0-.624c-.7,0-1.032-.614-1.032-1.347s.328-1.352,1.032-1.352,1.027.621,1.027,1.352S62.736,14.453,62.038,14.453Zm3.348-1.72a.865.865,0,0,1,.89-.957.782.782,0,0,1,.81.885V15h.743V12.571a1.258,1.258,0,0,0-1.3-1.439A1.137,1.137,0,0,0,65.4,11.8h-.047v-.621h-.713V15h.743Zm6.774,2.339a1.967,1.967,0,0,0,1.313-.475l.343.4h.84l-.723-.865a2.33,2.33,0,0,0,.423-1.447h-.671a1.936,1.936,0,0,1-.211.9l-1.019-1.218.348-.256a1.389,1.389,0,0,0,.676-1.148,1.153,1.153,0,0,0-1.263-1.109,1.185,1.185,0,0,0-1.285,1.2,1.907,1.907,0,0,0,.559,1.206c-.582.4-.977.778-.977,1.385A1.464,1.464,0,0,0,72.16,15.072Zm.895-.967a1.407,1.407,0,0,1-.892.338.845.845,0,0,1-.912-.815,1.123,1.123,0,0,1,.529-.763l.134-.1Zm-1.012-2.232a1.42,1.42,0,0,1-.413-.8.6.6,0,0,1,.6-.594.547.547,0,0,1,.567.507.775.775,0,0,1-.442.669ZM3.336,19.246h.741A1.581,1.581,0,0,0,2.3,17.839c-1.022,0-1.8.584-1.8,1.462,0,.708.507,1.124,1.325,1.345l.6.164c.544.144.964.323.964.776,0,.5-.475.825-1.129.825-.592,0-1.084-.263-1.129-.818H.358c.05.922.763,1.491,1.9,1.491,1.2,0,1.884-.629,1.884-1.491,0-.917-.818-1.273-1.464-1.432l-.5-.129c-.4-.1-.927-.288-.925-.776,0-.433.4-.753,1.022-.753C2.866,18.5,3.281,18.777,3.336,19.246Zm4.087,2.17a.9.9,0,0,1-.9.957.772.772,0,0,1-.778-.853V19.182H5V21.61c0,.947.52,1.439,1.253,1.439A1.183,1.183,0,0,0,7.4,22.339h.04V23h.731V19.182H7.423Zm4.6-1.3a1.325,1.325,0,0,0-1.444-.982c-.863,0-1.474.455-1.474,1.131,0,.542.328.9,1.044,1.061l.646.142c.368.082.539.246.539.485,0,.3-.316.527-.8.527a.743.743,0,0,1-.82-.567L9,22.021c.124.676.686,1.056,1.544,1.056.922,0,1.561-.49,1.561-1.181,0-.539-.343-.873-1.044-1.034l-.607-.139c-.42-.1-.6-.241-.6-.5,0-.293.316-.5.738-.5a.737.737,0,0,1,.763.512Zm2.672-.932h-.783v-.915h-.743v.915h-.559v.6h.559v2.255a1,1,0,0,0,1.114,1.017,1.423,1.423,0,0,0,.482-.08l-.134-.614a1.209,1.209,0,0,1-.261.032c-.241,0-.457-.08-.457-.51v-2.1H14.7Zm1.931,3.9a1.193,1.193,0,0,0,1.129-.607h.03V23h.726V20.464a1.3,1.3,0,0,0-1.482-1.332,1.542,1.542,0,0,0-1.576.974l.7.159a.892.892,0,0,1,.887-.532.635.635,0,0,1,.726.684v.017c0,.271-.278.266-.964.346-.723.085-1.464.273-1.464,1.141A1.159,1.159,0,0,0,16.63,23.085Zm.162-.6c-.42,0-.723-.189-.723-.557,0-.4.353-.539.783-.6a2.9,2.9,0,0,0,.92-.2v.492A.9.9,0,0,1,16.792,22.488ZM19.5,23h.743V19.182H19.5Zm.375-4.407a.444.444,0,1,0-.47-.442A.459.459,0,0,0,19.879,18.593Zm2.11,2.14a.865.865,0,0,1,.89-.957.782.782,0,0,1,.81.885V23h.743V20.571a1.258,1.258,0,0,0-1.3-1.439,1.137,1.137,0,0,0-1.126.671H21.96v-.621h-.713V23h.743Zm4.549,2.352a1.193,1.193,0,0,0,1.129-.607h.03V23h.726V20.464a1.3,1.3,0,0,0-1.482-1.332,1.542,1.542,0,0,0-1.576.974l.7.159a.892.892,0,0,1,.887-.532.635.635,0,0,1,.726.684v.017c0,.271-.278.266-.964.346-.723.085-1.464.273-1.464,1.141A1.159,1.159,0,0,0,26.538,23.085Zm.162-.6c-.42,0-.723-.189-.723-.557,0-.4.353-.539.783-.6a2.9,2.9,0,0,0,.92-.2v.492A.9.9,0,0,1,26.7,22.488ZM29.472,23H30.2v-.594h.062a1.166,1.166,0,0,0,1.1.669c.925,0,1.6-.741,1.6-1.976s-.681-1.966-1.6-1.966a1.147,1.147,0,0,0-1.1.669h-.045V17.909h-.743Zm.728-1.909c0-.8.348-1.327,1-1.327.674,0,1.012.569,1.012,1.327s-.348,1.35-1.012,1.35C30.558,22.441,30.2,21.894,30.2,21.091ZM33.792,23h.743V19.182h-.743Zm.375-4.407a.444.444,0,1,0-.47-.442A.459.459,0,0,0,34.167,18.593Zm2.11-.684h-.743V23h.743Zm1,5.091h.743V19.182h-.743Zm.375-4.407a.444.444,0,1,0-.47-.442A.459.459,0,0,0,37.652,18.593Zm3.15.589h-.783v-.915h-.743v.915h-.559v.6h.559v2.255a1,1,0,0,0,1.114,1.017,1.423,1.423,0,0,0,.482-.08l-.134-.614a1.209,1.209,0,0,1-.261.032c-.241,0-.457-.08-.457-.51v-2.1H40.8Zm1.263,5.3a1.243,1.243,0,0,0,1.233-.927l1.591-4.375h-.8l-.967,2.963h-.04l-.967-2.963h-.8l1.4,3.868-.109.3c-.186.5-.452.539-.863.43l-.179.616A1.3,1.3,0,0,0,42.065,24.484Z" transform="translate(83 36.611)" fill="#222"></path>
      <path id="Path_25" data-name="Path 25" d="M10.1-5.581a9.271,9.271,0,0,1-3.525-.658A8.6,8.6,0,0,1,3.76-8.069a8.262,8.262,0,0,1-1.854-2.749,8.772,8.772,0,0,1-.658-3.412,8.8,8.8,0,0,1,.658-3.424A8.262,8.262,0,0,1,3.76-20.4a8.524,8.524,0,0,1,2.814-1.825A9.345,9.345,0,0,1,10.1-22.88a9.185,9.185,0,0,1,3.531.664,8.6,8.6,0,0,1,2.808,1.848,8.408,8.408,0,0,1,1.854,2.755,8.667,8.667,0,0,1,.658,3.383,8.772,8.772,0,0,1-.658,3.412,8.262,8.262,0,0,1-1.854,2.749A8.617,8.617,0,0,1,13.63-6.239,9.258,9.258,0,0,1,10.1-5.581Zm0-3.7a5.044,5.044,0,0,0,1.89-.344,4.33,4.33,0,0,0,1.5-1,4.488,4.488,0,0,0,.989-1.57,5.706,5.706,0,0,0,.35-2.044,5.393,5.393,0,0,0-.61-2.63,4.337,4.337,0,0,0-1.682-1.724A4.835,4.835,0,0,0,10.1-19.2a4.982,4.982,0,0,0-1.884.35,4.327,4.327,0,0,0-1.5,1,4.616,4.616,0,0,0-.989,1.564,5.608,5.608,0,0,0-.355,2.05,5.325,5.325,0,0,0,.616,2.619A4.377,4.377,0,0,0,7.676-9.888,4.812,4.812,0,0,0,10.1-9.278Zm9.4,3.341,6.2-16.588h4.562L36.509-5.937H32.078L30.905-9.3H24.957L23.808-5.937Zm6.351-6.647h4.147l-2.085-5.735Zm18.5,7a12.174,12.174,0,0,1-3.661-.557,8.449,8.449,0,0,1-3.01-1.611l1.848-2.938a4.629,4.629,0,0,0,1.327.96,7.987,7.987,0,0,0,1.724.622,7.67,7.67,0,0,0,1.783.219A4.2,4.2,0,0,0,46.338-9.3a1.289,1.289,0,0,0,.764-1.191,1.331,1.331,0,0,0-.551-1.078,6.072,6.072,0,0,0-2.056-.841l-1.422-.4a7.709,7.709,0,0,1-3.685-1.943,4.238,4.238,0,0,1-1.126-2.962,4.509,4.509,0,0,1,.474-2.056A4.97,4.97,0,0,1,40.064-21.4a6.318,6.318,0,0,1,2.008-1.078,7.918,7.918,0,0,1,2.518-.385,10.791,10.791,0,0,1,3.5.551,6.882,6.882,0,0,1,2.6,1.5l-1.919,2.844a4.357,4.357,0,0,0-1.114-.829,6.46,6.46,0,0,0-1.446-.557,6.294,6.294,0,0,0-1.576-.2,4.161,4.161,0,0,0-1.363.2,2.075,2.075,0,0,0-.906.575,1.3,1.3,0,0,0-.326.883,1.017,1.017,0,0,0,.243.693,2.3,2.3,0,0,0,.818.527,14.885,14.885,0,0,0,1.558.545l1.446.427a8.721,8.721,0,0,1,3.685,1.872,3.937,3.937,0,0,1,1.137,2.927,4.875,4.875,0,0,1-.806,2.778,5.342,5.342,0,0,1-2.281,1.878A8.352,8.352,0,0,1,44.341-5.581Zm9.349-.355V-22.525h3.934V-5.937Zm13.638.355a12.174,12.174,0,0,1-3.661-.557,8.449,8.449,0,0,1-3.01-1.611l1.848-2.938a4.629,4.629,0,0,0,1.327.96,7.987,7.987,0,0,0,1.724.622,7.67,7.67,0,0,0,1.783.219A4.2,4.2,0,0,0,69.324-9.3a1.289,1.289,0,0,0,.764-1.191,1.331,1.331,0,0,0-.551-1.078,6.072,6.072,0,0,0-2.056-.841l-1.422-.4a7.709,7.709,0,0,1-3.685-1.943,4.238,4.238,0,0,1-1.126-2.962,4.508,4.508,0,0,1,.474-2.056A4.97,4.97,0,0,1,63.05-21.4a6.318,6.318,0,0,1,2.008-1.078,7.919,7.919,0,0,1,2.518-.385,10.791,10.791,0,0,1,3.5.551,6.882,6.882,0,0,1,2.6,1.5l-1.919,2.844a4.357,4.357,0,0,0-1.114-.829,6.46,6.46,0,0,0-1.446-.557,6.294,6.294,0,0,0-1.576-.2,4.161,4.161,0,0,0-1.363.2,2.075,2.075,0,0,0-.906.575,1.3,1.3,0,0,0-.326.883,1.017,1.017,0,0,0,.243.693,2.3,2.3,0,0,0,.818.527,14.887,14.887,0,0,0,1.558.545l1.446.427a8.721,8.721,0,0,1,3.685,1.872,3.937,3.937,0,0,1,1.137,2.927,4.875,4.875,0,0,1-.806,2.778,5.342,5.342,0,0,1-2.281,1.878A8.352,8.352,0,0,1,67.328-5.581Z" transform="translate(81.752 37.88)" fill="#222"></path>
    </g>
  </g>
</svg>
